<svg version="1.1" xmlns="http://www.w3.org/2000/svg" xmlns:xlink="http://www.w3.org/1999/xlink" viewBox="0 0 1170 140" xml:space="preserve">
<defs>
<style type="text/css">
	.mask {clip-path: url(#clippath);}

	.st0{fill:#FFBDEC;}
	.st1{fill:#EB008B;}
	.st2{fill:#6CCBDD;}
	.st3{fill:#5BABDF;}
	.st4{fill:#FAEAF2;}
	.st5{fill:url(#pG);}
	.st6{fill:#443C46;}
	.st7{fill:#D9D7DE;}
	.st8{fill:#E8E4EA;stroke:#443C46;stroke-width:2;stroke-miterlimit:15;}
	.st9{fill:url(#iPC);}
	.st10{fill:#544B58;}

	.PPb {fill: #003087;}
	.PPlb {fill: #0070e0;}
	.PPdb {fill: #001c64;}
	.PPy {fill: #ffd140;}

	.SCbg{fill:url(#rad-grad);}
	.SCp{fill:#EB008B;}
	.SClp{fill:#FFBDEC;}
	.SCwp{fill:#FAEAF2;}
	.SCg{fill:#6CCBDD;}
	.SCb{fill:#1896D3;}
	.SClb{fill:#26AEE4;}
	.g{fill:#3F3F3F;}
	.w{fill:#FFFFFF;}
	.b{fill:#1966AF;}

	.ff{font-family:futura-pt,sans-serif;}
	.f14{font-size:14px;}
	.f16{font-size:16.8px;}
	.f28{font-size:28px;}
	.f63{font-size:63px;}
	.fn{font-weight:500;}
	.fb{font-weight:700;}
	.fxb{font-weight:800;}
	.fm{text-anchor:middle;}
	.fe{text-anchor:end;}
  .SC1{visibility:hidden; animation: v1 6s infinite linear;}
@keyframes v1 { 33.2% {visibility:visible;} 33.3% {visibility:hidden;}}
  .SC2{visibility:hidden; animation: v2 6s infinite linear;}
@keyframes v2 { 33.2% {visibility:hidden;} 33.3% {visibility:visible;} 66.5% {visibility:visible;} 66.6% {visibility:hidden;}}
  .SC3{visibility:hidden; animation: v3 6s infinite linear;}
@keyframes v3 { 66.5% {visibility:hidden;} 66.6% {visibility:visible;}}
	</style>
    <clipPath id="clippath">
      <rect fill="none" width="287" height="132"/>
    </clipPath>
    <radialGradient id="rad-grad" cx="0" cy="0" fx="0" fy="0" r="100" gradientUnits="userSpaceOnUse"><stop offset="0" stop-color="#0070ba"/><stop offset="1" stop-color="#013088"/></radialGradient>
</defs>
<g class="mask" transform="matrix(1 0 0 1 613 8)">
	<g id="iPhone_Frame">
      <path id="Button-D" fill="#443C46" d="M.7,112.4H5.1c.4,0,.7,.3,.7,.7h0v21.7c0,.4-.3,.7-.7,.7H.7C.3,135.5,0,135.2,0,134.8H0v-21.7c0-.4,.3-.7,.7-.7H.7Zm0,41.5H5.1c.4,0,.7,.3,.7,.7h0v44.7c0,.4-.3,.7-.7,.7H.7C.3,200,0,199.7,0,199.3H0v-44.7c0-.4,.3-.7,.7-.7H.7Zm0,56.1H5.1c.4,0,.7,.3,.7,.7h0v44.7c0,.4-.3,.7-.7,.7H.7C.3,256.1,0,255.8,0,255.4H0v-44.7c0-.4,.3-.7,.7-.7H.7Zm285.6-26.1h-4.4c-.4,0-.7,.3-.7,.7h0v70.8c0,.4,.3,.7,.7,.7h4.4c.4,0,.7-.3,.7-.7h0v-70.8c0-.4-.3-.7-.7-.7h0Z"/>
      <path id="Button-L" fill="#B0A8B6" d="M.6,113H5.1c.4,0,.7,.3,.7,.6h0v20.6c0,.4-.3,.7-.6,.7H.7c-.4,0-.7-.3-.7-.7H0v-20.6c0-.4,.3-.6,.7-.6h0Zm0,41.5H5.1c.4,0,.7,.3,.7,.6h0v43.5c0,.4-.3,.7-.6,.7H.7c-.4,0-.7-.3-.7-.7H0v-43.5c0-.4,.3-.7,.6-.7H.6Zm0,56.3H5.1c.4,0,.7,.3,.7,.7h0v43.5c0,.4-.3,.7-.6,.7H.7c-.4,0-.7-.3-.7-.7s0,0,0,0v-43.5c0-.4,.3-.7,.6-.7H.6Zm285.7-26.1h-4.5c-.4,0-.7,.3-.7,.6h0v69.6c0,.4,.3,.7,.6,.7h4.5c.4,0,.7-.3,.7-.7h0v-69.6c0-.4-.3-.6-.7-.6h.1Z"/>
      <path fill="#e8e4ea" stroke="#443c46" stroke-width="2px" d="M235.1,1H51.8C24.9,1,3,22.9,3,49.8h0v482.8c0,26.9,21.8,48.8,48.8,48.8H235.1c26.9,0,48.8-21.9,48.8-48.8h0V49.8c0-26.9-21.8-48.8-48.8-48.8h0Z"/>
      <path fill="#49454B" d="M234,2.6H53C26.4,2.6,4.9,24.2,4.9,50.7v480.9c0,26.6,21.5,48.1,48.1,48.1H234c26.6,0,48.1-21.6,48.1-48.1V50.8c0-26.6-21.5-48.1-48.1-48.1h0Z"/>
      <path fill="#7b6E81" d="M234,2.6H53C26.4,2.6,4.9,24.2,4.9,50.7v480.9c0,26.6,21.5,48.1,48.1,48.1H234c26.6,0,48.1-21.6,48.1-48.1V50.8c0-26.6-21.5-48.1-48.1-48.1h0Z"/>
      <path d="M234.2,4.5H52.7C27.7,4.5,7.4,24.8,7.4,49.9v482.6c0,25,20.3,45.4,45.3,45.4H234.2c25,0,45.3-20.3,45.3-45.4V49.9c0-25-20.3-45.4-45.3-45.4Z"/>
      <path id="Antenna" fill="#443C46" d="M221.2,1h3.9v3.5h-3.9V1Zm58.3,63.2h4.4v3.9h-4.4v-3.9ZM3,64.2H7.4v3.9H3v-3.9ZM61.8,577.8h3.9v3.5h-3.9v-3.5ZM3,514.2H7.4v3.9H3v-3.9Zm276.5,0h4.4v3.9h-4.4v-3.9Z"/>
      <rect id="Background" class="SCbg" x="16" y="14" width="255" height="554" rx="34" ry="34"/>
	</g>
</g>
<path class="st0" d="M635.2,6.5l3.6,5.7-3.6,4.4-3.9-6.2,3.9-3.9Zm254.1,12.6l-1.5-6.8,7.2-3.6,2.2,5.1-7.9,5.3Zm-71.6-10.4l1.6-5.4-4.1-3.4-1.4,6,3.9,2.8Zm204.4-4.2V12.9h6.4l-6.4-8.4ZM51.9,15.2h12.4l8.3-10.6-12.9-.6-7.8,11.2ZM528.7,5.1l-3.7-3.3,3.7-1.8h7.5l-7.5,5.1Zm78,3l-13.4-1.9,4.7-6.2h13.9l-5.2,8.1Zm241.9,31.4l3.6,5.7-3.6,4.4-3.9-6.2,3.9-3.9Zm28.2,80l-1.5-6.8,7.2-3.6,2.2,5.1-7.9,5.3Zm-99-68.7l1.6-5.4-4.1-3.4-1.4,6,3.9,2.8Zm83.4-12.5v1.7l2.3-1.7h-2.3Zm-1.4,82.7l-1.5-1.7,1.5-2.3,1.5,2.3-1.5,1.7Zm-25.5-70.2v5h3.8l-3.8-5Z"/>
<path class="st1" d="M630,26.4v-2l-3.3-1.3v2.3l3.3,1Zm-215.6-15.7h-9.1V5.4l9.1,5.3Zm57.3,20.5l2.6-10-4.9-1.3-2.5,10,4.8,1.3ZM862.1,6.8l9.4,4.3,2.2-4.6-9.5-4.2-2.1,4.5Zm303.2,35.8l1.4,4.1-9.9-8.5-1.3-4.2,9.8,8.6ZM29.6,7.9h6.4V0l-6.4,7.9Zm211.9-.6l6.9-3.4V0h-8.7l1.8,7.3Zm-76.1,9.4l2.3-1.7V7.3l-2.3,2.4v7ZM728,0l-5.6,6.2,18.8,1.9L748.9,0s-20.9,0-20.9,0Zm-26.9,4l2.1-1.4V0h-3l.9,4Zm164.6,123.3v-2l-3.3-1.3v2.3l3.3,1Zm-12.7-85.7l2.3-4.3-1.1-1-1.9,4.5,.7,.8Zm26,48.7h-9.1v-5.2l9.1,5.2Zm-5.3,10.3l2.1,.7-3.9,2.5,1.8-3.2Zm-11.3-40.1l2.6-10-4.9-1.3-2.5,10,4.8,1.3Zm-113.5-30.6l9.4,4.3,2.2-4.6-9.5-4.2-2.1,4.5Zm12.6,25.9l-3.4-1.6-1.7,1.7,4.4,1.5,.7-1.6Zm116.5,23.9l-.7-.5,1.7-2.5,.7,.6-1.7,2.4Zm-75.7-20.3l-.7,.6-2.1-2.2,.7-.6,2.1,2.2Zm76.8,13.1l.8,2.5-5.9-5.1-.8-2.5,5.9,5.1Z"/>
<path class="st2" d="M1162.4,17.9l5.2-4.5-14.4-8.1-4.8,4.9,14,7.7Zm-96.9,6.1l-1.2-7.4,2.8-3.8,1.8,7.1-3.4,4.1Zm-656,12.3l2.9-2.8-2.1-5.2-2.9,2.8,2.1,5.2Zm-41.2-21.1l-3.8-2.4,2.8-4.8,3.9,2.4-2.9,4.8Zm-256.4,1l-2-1,5.3-4.8,1.7,1.4-5,4.4Zm114.5,6.3h13.3l-2.3,2.2-11-2.2Zm329.7,8.3h10.9l4.3-10.5-8.7-1.8-6.5,12.3Zm89.4-25.7v-1.5l5-3.6h2.1l-7.1,5.1Zm7.3,7.1l-10.9,5.9h7.9l4.3-2.9-1.3-3Zm164.6,33.2l3.1-2.7-8.6-4.9-2.8,2.9,8.3,4.7Zm54.6,1l-.7-4.4,1.6-2.2,1.1,4.3-2,2.3Zm-30.2,73.9l2.9-2.8-2.1-5.2-2.9,2.8,2.1,5.2Zm14.8,2.4l-3.8-2.4,2.8-4.8,3.9,2.4-2.9,4.8Zm17.4,2.9v2.2l1.7-1.1-.9-3.1-.8,2Zm-18.7-12.3l2.1,1.3h-2.1v-1.3Z"/>
<path class="st3" d="M1127,18.4l-2.3-5,7.1-5.2,1.7,3.9-6.5,6.3Zm-182.8,.7l1.4,2.6,10.8-4.4-2.2-2.6-10,4.4ZM985.9,.6l-3.5,6.8,4.6,6.5,3.2-5.7-4.3-7.6Zm-67.2,27.6l-1.2-3.5-5.9-3.5,1.3,3.5,5.8,3.5ZM7.1,23.4l3.2-2.3-5.5-4.5-2.3,3.4,4.6,3.4Zm80.3-5l4.6-3.4v3.4h-4.6Zm203.6,8.3v-2.8l-8.7-5.5v4.1l8.7,4.2Zm24.4-10l-2.3-1.7,5.9-7.7,1.9,2.2-5.5,7.2Zm125.2-9.4h4.6l2.3,4.7h-3.5l-3.4-4.7ZM494.7,0l3.2,3.6,4.1-3.6h-7.3Zm88.3,5.1l-5.1-4.3-2.3,2.8,4.5,3.7,2.9-2.2Zm-19.3,3.4l-1.2-3.5-5.9-3.5,1.3,3.5,5.8,3.5ZM154.5,15l-1-4.6,2.9-3.1v3.8l-1.9,3.9ZM877.7,63.5l-1.4-3,4.2-3.1,1,2.3-3.8,3.8Zm-117.1-20.4l.8,1.5,6.4-2.6-1.3-1.6-5.9,2.7Zm36.1,10.2l-.9-3.9h2.1l1.2,3.9h-2.4Zm11.4-2.5l-3.5,6.8,4.6,6.5,3.2-5.7-4.3-7.6Zm18.7,69.5l-1.2-3.5-5.9-3.5,1.3,3.5,5.8,3.5Zm38.2-7h1l1,1.2-2-1.2Z"/>
<path class="st4" d="M934.2,10.8l-1.6-2.3,3.3-4.7v3.1l-1.7,3.9Zm143.8,4.6h-3.5l5.1-13.4,3.2,1.4-4.8,12Zm-557.7,0c-4.9-.8-7.3-1.2-12.2-2.1,1,.8,1.4,1.3,2.4,2.1,4.9,.8,7.3,1.2,12.2,2.1-1-.8-1.5-1.2-2.4-2.1m629,7l-.5,.7-6.1-5.8h1.2c0-.1,5.4,5.1,5.4,5.1Zm-325.2,22.2l-1-1.4,1.9-2.8v1.8l-.9,2.4Zm-21.4,23.8h-2.1l3-8,1.9,.9-2.8,7.1Zm-2.5-27.5l-.3,.4-1-1.6,.4-.3,.9,1.5Zm-7.1,11.5c-2.9-.5-4.4-.7-7.2-1.2,.6,.5,.9,.8,1.4,1.3,2.9,.5,4.3,.7,7.2,1.2-.5-.5-.8-.8-1.4-1.3m87.2,.6l-.3,.4-3.6-3.5h.7c0,0,3.2,3.1,3.2,3.1Zm-5,32h.5c0,0-.2,4.9-.2,4.9l-.5-.5,.2-4.4Z"/>
<g id="StoreCash_Lockup">
	<path id="Wallet" class="SCb" d="M814.8,63c.6,0,1.1-.2,1.7-.2h44.7v-.2c-.4-4.2-4.1-7.3-8.3-6.8h0l-36.6,4.5c-2.5,.3-4.6,1.8-5.7,4,1.3-.8,2.8-1.2,4.3-1.3m-3.1,2.9h0c1.1-.6,2.3-.9,3.5-.9h51.7c4,0,7.2,3.4,7.1,7.4v36.6h0c-.2,3.8-3.3,6.7-7.1,6.8h-51.7c-4,0-7.2-3.4-7.2-7.4h0v-35.9c0-2.8,1.4-5.3,3.7-6.6Z"/>
	<path id="Shine" class="SClb" d="M874,72.3c0-4-3.1-7.3-7.2-7.4h-51.7c-1.2,0-2.4,.3-3.5,.9,5.1,25.1,26.7,43.9,52.5,43.9s6.5-.3,9.8-.9v-36.5h.1Z"/>
	<path id="Text" class="w" d="M833.2,94.1c-4.9-3.8-12.6,0-12.4,6.4,0,4.2,3.3,7.7,7.5,7.8,1.7,0,3.4-.5,4.9-1.5v-2.1c-3.7,3.9-10.6,1.5-10.6-4-.5-5.6,7-8.7,10.6-4.4v-2.2m8.9,5.8c-2.6-3.2-7.9-1.3-7.8,3.3-.2,4.8,5.3,6.6,7.8,3.4v1.3h1.6v-9.4h-1.6v1.4Zm-3,0c3.8-.2,4.4,6.9,0,7-4.3,0-4-7.2,0-7m12,.2c-1.4-3.4-6.9-1.2-4.9,2.3,1,1.3,3.7,1.2,3.8,3,0,2.2-3,1.7-3.4,0l-1.4,.6c1.3,4.3,8.6,2.1,6-2.1-.8-1.3-3.8-1.4-3.9-2.7,0-1.5,2-1.4,2.4-.2l1.4-.9Zm1.8,7.9h1.6v-4.9c-.4-2.1,1.8-4.3,3.7-2.7,.5,.5,.7,1.2,.6,1.9v5.8h1.6c-.2-1.8,.5-6.8-.5-8.3-1.4-1.8-4-1.6-5.4,0v-8.2h-1.6v16.3Zm-36.4-21.4c4.8,3.8,13.2,.4,9.4-5.9-1-.9-2.3-1.5-3.7-1.7-1.2-.4-1.3-.5-1.4-1.3,.3-1.9,3-1.2,4-.2l1.5-2.8c-7.9-4.5-12.7,5.1-6.4,7.2,1.4,.5,4.1,1,2.8,2.8-1.4,1.1-3.5,0-4.6-.9l-1.6,2.8m18-5.6v-2.9h-2v-3.2h-3.5v3.2h-1.1v2.9h1.1v6.9h3.5v-6.9h2Zm6.2-.2c2.9,0,2.9,4.4,0,4.4s-2.9-4.4,0-4.4m5.8,2.2c0-6.9-11.8-6.9-11.7,0,0,6.9,11.7,7,11.7,0m1.3,4.9h3.5c0-2.9-1-8.4,3.9-6.6v-3.3c-1.5-.3-3.1,.3-3.9,1.7v-1.6h-3.5v9.8h0Zm18.1-4.4c.3-5-5.9-6.8-9-3.9-1.9,2-1.9,5.2,0,7.2,2.6,2.5,8.1,1.6,8.8-1.8h-3.2c-.9,1.6-3.9,.8-3.7-1.2h7v-.3Zm-6.8-1.6c.3-2,3.5-2,3.8,0h-3.8m6.5,16.2l-3.2,1.5v.6l3.9-1.8v-.6l-3.9-1.8v.6l3.2,1.5Z"/>
</g>
<path id="StoreCash" class="b" d="M115.4,25.7h-12.1v21.3h12.1v-4.7h-6.6v-3.7h6.2v-4.7h-6.2v-3.6h6.6v-4.6Zm14.1,8.4c-4.3-4.6-12.2,0-11.6,5.9-.5,5.8,7.7,10.4,11.6,5.5v1.5h5.1v-14.3h-5.1v1.4Zm-3.2,2.5c4.3,0,4.3,6.6,0,6.6-4.2,0-4.2-6.6,0-6.6h0Zm11.8,10.4h5.1c-.2-3.9-.9-12.7,5.7-9.6v-4.8c-2.4-.3-4.6,.4-5.7,2.5v-2.3h-5.1v14.2Zm13.1,0h5.1c.5-2.4-1.7-10.8,2.7-10.6,4,0,1.7,8.2,2.3,10.6h5.1c-.4-2.9,1.1-10.9-1.3-13.1-2.4-2.2-6.8-2.1-8.8,.6v-1.8h-5.1v14.3ZM27.1,88.3c12.7,10.3,39.2,7.7,38.4-12.5,.8-13.4-14.1-13.2-21.5-18-2.8-7.9,7.9-8.7,14-3.2l5.4-10.6c-17.5-10.8-43.3,.4-31.2,22.5,3.2,3.4,7.2,4,11,5.3,19.4,5.4,.8,17.8-10.3,5.6l-5.8,10.9Zm63.3-19.9v-10.3h-7.1v-11.4h-12.5v11.5h-4v10.2h4v24.6h12.5v-24.6h7.1Zm20.9-.8c10.3,0,10.3,15.8,0,15.8-10.4,0-10.4-15.9,0-15.8h0Zm20.9,7.9c.6-24.4-42.5-24.5-41.9,0,0,24.9,42.1,24.7,41.9,0h0Zm3.8,17.5h12.5c.1-9.6-3.1-30.5,13.9-23.5v-11.8c-5.8-.7-11.1,.9-13.9,6.1v-5.7h-12.5v34.9Zm65.5-16.5c2-25.2-39.6-26-38.5-.9-1.5,21.3,33.8,25.1,38,6.5h-11.9c-3.8,6.4-14.5,2.9-13.6-4.3h26v-1.3Zm-25.6-5.8c1-7.6,12.9-7.3,14.1,0h-14.1Zm71.6-25.4c-17-13.2-43.6,.3-42.6,21.9-.9,21.5,25.5,34.5,42.6,21.7v-7.2c-12.2,12.7-36.1,7-36.7-14.4-.8-19.4,23.9-28.9,36.7-14.8v-7.2Zm30.7,19.9c-8.8-10.9-27.3-4.6-26.8,11.5-.4,16.4,17.9,22.7,26.8,11.7v4.6h5.6V60.6h-5.6v4.6Zm-10.5-.4c13-1.1,15.2,24.1,0,24.1-14.5,.7-13.2-25.3,0-24.1h0Zm41.3,.9c-4.7-12-24.3-3.5-16.8,8,1.8,3.6,13.2,4.5,13.1,10.1-.3,8.1-11.1,5.2-11.9-.2l-4.8,2c3,11.7,22.8,10.8,22.5-2.3,1.2-9.3-13.6-8.4-15.1-14.8,.1-5.1,7.3-4.4,8.4-.4l4.6-2.4Zm6.2,27.3h5.6c.7-6.4-2-20,2.3-25.7,2.7-3.2,8.3-3.5,11-.2,2.9,3.7,.9,21.3,1.5,25.8h5.6c-.6-6,1.7-23.7-1.9-28.7-4.3-6.1-14.3-5.9-18.6,0v-28.2h-5.6v56.9Zm45.8-41l-16.2,7.4v3.3l19.7-9.2v-2.8l-19.7-9.2v3.3l16.2,7.2Z"/>
<path id=">" class="b" d="M589.6,86.2h-9.6v7.6h9.6v6.2l10.4-10-10.4-10v6.2Z"/>
  <g id="PayPal-Pay-in-4" transform="matrix(0.9 0 0 0.9 125 99)">
    <path class="PPy" d="M20,0H181.7c11,0,20,9,20,20h0c0,11-9,20-20,20H20C9,40,0,31,0,20H0C0,9,9,0,20,0Z"/>
    <path class="PPlb" d="M87.3,13.1h-4.6c-.2,0-.3,.1-.4,.3l-2.1,13.1c0,.2,0,.4,.3,.4h2.4c.2,0,.3-.1,.4-.3l.6-3.9c0-.2,.2-.3,.4-.3h2.2c6.2,0,7.5-9.2,.7-9.4h0Zm1.3,5h0c-.2,1.1-1.2,1.8-2.3,1.7h-1.8l.6-3.5c1.6,0,3.9-.3,3.6,1.8,0,0,0,0,0,0Zm13.8-.6h-2.3c-.4,0-.4,.5-.4,.8-2.7-2.5-7.2-.5-8.1,2.9,0,0-1.2,3.5,1.5,5.5,1.6,1.1,3.7,1,5.3-.1,0,.3,0,.7,.3,.7h2.3c.2,0,.3-.1,.4-.3l1.4-9c0-.2,0-.4-.3-.4h-.1Zm-3.4,4.8c-.2,1.6-1.9,2.6-3.3,2.1-3-1.2-.9-5.4,1.9-4.5,1,.3,1.6,1.3,1.4,2.3h0Zm-65.5,2.6h-2c-.3,0-.6,.2-.7,.6l-.9,5.8c0,.3-.3,.6-.7,.6h-3.5c-.3,0-.6-.3-.5-.6,.4-2.4,2.7-17.3,2.7-17.3,0-.3,.3-.6,.7-.6h5.8c1,0,2,.2,2.8,.7h0c5.6,3,2,11-3.7,10.8ZM105.1,13.6l-2.1,13.1c0,.2,0,.4,.3,.4h2.5c.2,0,.3-.1,.4-.3l2.1-13.1c0-.2,0-.4-.3-.4h-2.5c-.2,0-.3,.1-.4,.3"/>
    <path class="PPb" d="M37.2,13.7v.7c-.5,3.2-3.2,5.5-6.4,5.5h-3.2c-.3,0-.6,.2-.7,.6,0,0-.5,3.1-1,6.3h-4c-.3,0-.5-.2-.5-.5l2.7-17.3c0-.3,.3-.6,.7-.6h6.9c3-.2,5.6,2.3,5.6,5.3h0Zm87,6.9c-1.7,1-3.7,.8-5.6,.8v5c0,.3-.2,.5-.4,.4h-1.6c-.3,0-.5-.2-.4-.4h0V13.4c0-.3,.2-.5,.4-.4h3.7c1.3-.1,2.6,0,3.7,.7,2.5,1.4,2.5,5.4,.2,7h0Zm-.8-3.7c0-1.4-.9-2-2.9-2h-2v4.1h2.1c1.5,0,2.7-.6,2.7-2.1h.1Zm12.3,9.4c0,.2-.2,.3-.4,.3h-1.3c-.7,0-.5-.9-.5-1.4-1.7,2.6-7.1,1.9-7-1.5h0c0-2.9,4.7-3.3,6.8-3.5,0-1.7-.6-2.3-2-2.3-.9-.1-1.7,.4-2,1.3,0,.3-.2,.4-.5,.4h-1.4c-.6,0-.4-.5-.3-.8,.4-1.6,1.9-2.7,4.2-2.7,4.5,0,4.3,3.4,4.2,7.4,0,1,0,1.9,.2,2.9h0Zm-2.4-4.6c-2.3,.2-4.5,.6-4.3,1.8,0,.9,.7,1.4,1.8,1.4,1.7,0,2.5-1,2.5-2.8h0v-.4Zm5.4,7.9c0,.2,.2,.3,.4,.3h1.5c.2,0,.4-.1,.5-.3l5.1-12.8v-.2c0-.2-.2-.3-.4-.3h-1.6c-.2,0-.4,.1-.5,.4l-2.4,6.9-2.3-6.9c0-.2-.3-.4-.5-.4h-1.6c-.4,0-.5,.3-.3,.5l3.6,9.4-1.3,3.1c0,.1,0,.2-.1,.3h0Zm13.1-14.8h1.5c.2,0,.4-.2,.3-.4v-1.3h0c0-.2-.2-.4-.4-.3h-1.5c-.3,0-.5,.2-.4,.4v1.3c0,.3,.2,.5,.4,.4h0Zm-.4,11c0,.3,.2,.5,.4,.4h1.5c.3,0,.5-.2,.4-.4v-9.3c0-.3-.2-.5-.4-.4h-1.5c-.3,0-.5,.2-.4,.4v9.3h0Zm4.4,0c0,.3,.2,.5,.4,.4h1.5c.3,0,.5-.2,.4-.4v-5.2c0-1.6,.7-2.9,2.3-2.9s2.1,1.3,2.1,3.3v4.8c0,.3,.2,.5,.4,.4h1.5c.3,0,.5-.2,.4-.4v-5.9c0-2.6-1.4-4.2-3.7-4.2s-2.5,.5-3.2,1.6c0-.4,.3-1.3-.4-1.3h-1.4c-.3,0-.5,.2-.4,.4v9.3h0Zm24.6-3.9h0v1.1c0,.3-.2,.5-.4,.4h-1.4v2.4c0,.3-.2,.5-.4,.4h-1.3c-.3,0-.5-.2-.4-.4h0v-2.4h-5.8c-.3,0-.5-.2-.4-.4,0-.4-.1-1.4,.2-1.7l4-5.7c.6-.9,1.6-2.3,2-2.9,.1-.2,.3-.3,.5-.3h1.4c.3,0,.5,.2,.4,.4v8.6h1.4c.2,0,.4,.1,.4,.3l-.2,.2h0Zm-4-6.2h0c-.9,1.6-2.7,4.2-3.9,5.9h3.9v-5.9Zm-123.4,6.3h-2.2c-.2,0-.3,.1-.4,.3l-.6,3.9c0,.2-.2,.3-.4,.3h-2.5c-.2,0-.4-.2-.3-.4l2.1-13.1c0-.2,.2-.3,.4-.3h4.6c6.7,.2,5.5,9.3-.7,9.4h0Zm-1.5-6.6l-.6,3.5h1.8c1.1,.2,2.1-.6,2.3-1.7h0c.3-2.2-2-1.8-3.6-1.8h0Zm17.7,1.6l-1.4,9c0,.2-.2,.3-.4,.3h-2.3c-.4,0-.3-.4-.3-.7-1.6,1.2-3.7,1.2-5.3,.1-2.7-1.9-1.5-5.5-1.5-5.5,.9-3.3,5.4-5.4,8.1-2.9,0-.3,0-.8,.4-.8h2.3c.2,0,.4,.2,.3,.4h0Zm-5.2,2.4c-2.8-.9-4.9,3.3-1.9,4.5,1.5,.5,3.1-.6,3.3-2.1,.2-1-.4-2-1.4-2.3h0Zm13.4-2.6c0-.1,.2-.2,.4-.2h2.7c.2,0,.3,.2,.2,.4l-7.1,11.8c0,.1-.2,.2-.4,.2h-2.7c-.2,0-.3-.2-.2-.4l2.3-3.7-2.6-7.9c0-.2,0-.4,.3-.4h2.5c.2,0,.3,.1,.3,.3l1.4,4.7,2.8-4.7"/>
    <path class="PPdb" d="M37.2,14.5v-.7c-.9-.5-1.8-.7-2.8-.7h-5.8c-.3,0-.6,.2-.7,.6l-1.1,6.9c0-.3,.3-.6,.7-.6h3.2c3.2,0,5.9-2.3,6.4-5.5h0Z"/>
  </g>

<!--edit content below to Earn StoreCash-->
<text x="117" y="125" class="b ff fn f28 fe">with</text>
<text transform="matrix(1 0 0 1 489 56)">
	<tspan x="0" y="0" class="b ff fn f28 fm">Spend</tspan>
	<tspan x="0" y="78" class="b ff fn f20 fm">with PayPal Pay in 4</tspan>
	<tspan x="230" y="0" class="w ff fn f28 fm">Earn</tspan>
</text>
<text transform="matrix(1 0 0 1 1037 39)" class="g ff f14 fm">
	<tspan x="0" y="0">When you checkout using PayPal Pay in 4</tspan>
	<tspan x="0" y="16">&amp; take delivery by 31/0/23. T&amp;Cs apply.</tspan>
	<tspan x="0" y="32">One PayPal StoreCash> reward only per</tspan>
	<tspan x="0" y="48">customer. Download your FREE The Good Guys</tspan>
	<tspan x="0" y="64">StoreCash card to your mobile’s digital wallet.</tspan>
</text>
<text x="1037" y="128" class="b ff f16 fm" style="text-decoration: underline;">LEARN MORE &gt;</text>
<text transform="matrix(1 0 0 1 489 111)" class="SC1">
	<tspan x="0" y="0" class="b ff fb f63 fm">$200</tspan>
	<tspan x="230" y="0" class="w ff fxb f63 fm">$50</tspan>
</text>
<text transform="matrix(1 0 0 1 489 111)" class="SC2">
	<tspan x="0" y="0" class="b ff fb f63 fm">$750</tspan>
	<tspan x="230" y="0" class="w ff fxb f63 fm">$100</tspan>
</text>
<text transform="matrix(1 0 0 1 489 111)" class="SC3">
	<tspan x="0" y="0" class="b ff fb f63 fm">$1500</tspan>
	<tspan x="230" y="0" class="w ff fxb f63 fm">$150</tspan>
</text>
</svg>